G04 Layer_Color=16711935*
%FSLAX44Y44*%
%MOMM*%
G71*
G01*
G75*
%ADD72C,0.1500*%
%ADD136C,2.0000*%
%ADD174C,3.5600*%
%ADD175C,2.4000*%
%ADD176C,1.2000*%
%ADD177C,2.9500*%
%ADD178C,1.6500*%
%ADD179C,1.7000*%
%ADD181R,1.5500X4.0350*%
%ADD182R,1.2000X2.2500*%
D72*
X620000Y0D02*
G03*
X650000Y30000I0J30000D01*
G01*
X650000Y530000D02*
G03*
X620000Y560000I-30000J0D01*
G01*
X572000Y0D02*
X620000D01*
X498000D02*
X572000D01*
X140250D02*
X498000D01*
X140250D02*
Y19250D01*
X71750D02*
X140250D01*
X71750Y0D02*
Y19250D01*
X30000Y0D02*
X71750D01*
X24148Y576D02*
X30000Y0D01*
X18520Y2284D02*
X24148Y576D01*
X13333Y5056D02*
X18520Y2284D01*
X8787Y8787D02*
X13333Y5056D01*
X5056Y13333D02*
X8787Y8787D01*
X2284Y18520D02*
X5056Y13333D01*
X577Y24147D02*
X2284Y18520D01*
X0Y30000D02*
X577Y24147D01*
X0Y30000D02*
Y168500D01*
X49750D01*
Y491250D01*
X0D02*
X49750D01*
X0D02*
Y530000D01*
X577Y535853D01*
X2284Y541480D01*
X5056Y546667D01*
X8787Y551213D01*
X13333Y554944D01*
X18520Y557716D01*
X24148Y559424D01*
X30000Y560000D01*
X62750Y560000D01*
X62750Y565000D02*
X62750Y560000D01*
X62750Y565000D02*
X587250Y565000D01*
X587250Y560000D01*
X620000Y560000D01*
X650000Y30000D02*
X650000Y530000D01*
D136*
X13500Y504250D02*
D03*
X30000Y65000D02*
D03*
X630000Y500000D02*
D03*
X553600Y525000D02*
D03*
X96400D02*
D03*
D174*
X559600Y37750D02*
D03*
X483400D02*
D03*
D175*
X521500Y113950D02*
D03*
D176*
X68250Y414500D02*
D03*
X210700Y448300D02*
D03*
X617000Y473500D02*
D03*
X316750Y79823D02*
D03*
X67000Y484000D02*
D03*
X68750Y444000D02*
D03*
X107500Y450500D02*
D03*
X91750Y427750D02*
D03*
X246750Y65250D02*
D03*
X138500Y467250D02*
D03*
Y446250D02*
D03*
Y425250D02*
D03*
X183500Y462500D02*
D03*
X203250Y479250D02*
D03*
X148500Y406000D02*
D03*
X148500Y486000D02*
D03*
X148500Y466000D02*
D03*
Y446000D02*
D03*
Y426000D02*
D03*
X416751Y520250D02*
D03*
X396751D02*
D03*
D177*
X35000Y35000D02*
D03*
Y525000D02*
D03*
X615000D02*
D03*
Y35000D02*
D03*
D178*
X76750Y14250D02*
D03*
X135250Y14250D02*
D03*
D179*
X42500Y84000D02*
D03*
X17500Y96500D02*
D03*
Y141500D02*
D03*
X42500Y154000D02*
D03*
D181*
X77750Y42430D02*
D03*
X134250D02*
D03*
D182*
X83700Y497750D02*
D03*
Y552250D02*
D03*
X109100Y497750D02*
D03*
Y552250D02*
D03*
X134500Y497750D02*
D03*
Y552250D02*
D03*
X159900Y497750D02*
D03*
Y552250D02*
D03*
X185300Y497750D02*
D03*
Y552250D02*
D03*
X210700Y497750D02*
D03*
Y552250D02*
D03*
X236100Y497750D02*
D03*
Y552250D02*
D03*
X261500Y497750D02*
D03*
Y552250D02*
D03*
X286900Y497750D02*
D03*
Y552250D02*
D03*
X312300Y497750D02*
D03*
Y552250D02*
D03*
X337700Y497750D02*
D03*
Y552250D02*
D03*
X363100Y497750D02*
D03*
Y552250D02*
D03*
X388500Y497750D02*
D03*
Y552250D02*
D03*
X413900Y497750D02*
D03*
Y552250D02*
D03*
X439300Y497750D02*
D03*
Y552250D02*
D03*
X464700Y497750D02*
D03*
Y552250D02*
D03*
X490100Y497750D02*
D03*
Y552250D02*
D03*
X515500Y497750D02*
D03*
Y552250D02*
D03*
X540900Y497750D02*
D03*
Y552250D02*
D03*
X566300Y497750D02*
D03*
Y552250D02*
D03*
M02*
