G04 Layer_Color=8388736*
%FSLAX44Y44*%
%MOMM*%
G71*
G01*
G75*
%ADD72C,0.1500*%
%ADD106R,1.2000X9.8750*%
%ADD107R,8.1250X1.2000*%
%ADD108R,8.1000X1.2000*%
%ADD109R,3.8250X1.4250*%
%ADD110R,7.7750X1.2000*%
%ADD111R,1.2000X10.2500*%
%ADD112R,21.0000X1.2000*%
%ADD113R,1.2000X10.2250*%
%ADD114R,1.0000X1.6000*%
%ADD115R,1.6000X1.0000*%
%ADD116R,1.1000X1.2000*%
%ADD117R,0.5000X1.4000*%
%ADD118R,1.4000X0.5000*%
%ADD119R,1.2000X1.2000*%
%ADD120R,1.2000X1.2500*%
%ADD121R,1.2500X2.4000*%
%ADD122R,0.6500X1.0500*%
%ADD123R,2.7000X1.8000*%
%ADD124R,4.2000X1.2000*%
%ADD125R,2.2000X1.0000*%
%ADD126R,1.0000X2.2000*%
%ADD127R,2.8000X1.2000*%
%ADD128R,1.2000X2.8000*%
%ADD129R,1.0000X1.2000*%
%ADD130R,1.2000X1.0000*%
%ADD131R,0.7000X0.7000*%
%ADD132R,0.7000X0.7000*%
%ADD133R,1.6400X1.1500*%
%ADD134R,0.7500X0.7500*%
%ADD135R,0.6000X0.9000*%
%ADD136C,2.0000*%
%ADD137R,0.8000X0.7500*%
%ADD138R,0.7080X0.5560*%
%ADD139R,1.3000X0.8000*%
%ADD140R,0.4000X0.8000*%
%ADD141R,0.8000X0.4000*%
%ADD142R,1.3000X1.3000*%
%ADD143R,1.2000X2.7000*%
%ADD144R,1.1000X1.0000*%
%ADD145R,1.9000X0.5500*%
%ADD146R,1.3500X2.0000*%
%ADD147R,1.1500X1.6500*%
%ADD148R,1.1500X1.6400*%
%ADD149R,1.1500X0.9000*%
%ADD150R,0.8200X0.7000*%
%ADD151R,1.2000X0.4500*%
%ADD152R,0.4500X1.2000*%
%ADD153R,3.4500X3.4500*%
%ADD154R,1.2000X0.8000*%
%ADD155R,1.2000X1.1000*%
%ADD156R,1.2500X0.8000*%
%ADD157R,0.8500X0.7500*%
%ADD158R,0.8250X1.2000*%
%ADD159R,0.9620X0.8250*%
%ADD160R,0.8250X1.2000*%
%ADD161R,1.2000X0.8250*%
%ADD162R,0.7000X0.8000*%
%ADD163R,1.2000X1.1300*%
%ADD164R,2.2300X1.0500*%
%ADD165R,0.7500X0.7500*%
%ADD166R,0.7000X0.8200*%
%ADD167P,1.0607X4X90.0*%
%ADD168R,0.8000X0.7000*%
%ADD169R,0.8250X0.9620*%
G04:AMPARAMS|DCode=170|XSize=0.82mm|YSize=0.7mm|CornerRadius=0mm|HoleSize=0mm|Usage=FLASHONLY|Rotation=315.000|XOffset=0mm|YOffset=0mm|HoleType=Round|Shape=Rectangle|*
%AMROTATEDRECTD170*
4,1,4,-0.5374,0.0424,-0.0424,0.5374,0.5374,-0.0424,0.0424,-0.5374,-0.5374,0.0424,0.0*
%
%ADD170ROTATEDRECTD170*%

%ADD171R,0.9000X1.1500*%
%ADD172R,0.7500X0.8500*%
%ADD173R,3.2000X1.0900*%
%ADD174C,3.5600*%
%ADD175C,2.4000*%
%ADD176C,1.2000*%
%ADD177C,2.9500*%
%ADD178C,1.6500*%
%ADD179C,1.7000*%
%ADD180C,0.8000*%
G36*
X367627Y394490D02*
X367755Y394464D01*
X367879Y394422D01*
X367997Y394364D01*
X368106Y394291D01*
X368205Y394205D01*
X368291Y394106D01*
X368364Y393997D01*
X368422Y393880D01*
X368464Y393755D01*
X368490Y393627D01*
X368498Y393496D01*
Y372496D01*
X368490Y372365D01*
X368464Y372237D01*
X368422Y372113D01*
X368364Y371995D01*
X368291Y371886D01*
X368205Y371787D01*
X368106Y371701D01*
X367997Y371628D01*
X367879Y371570D01*
X367755Y371528D01*
X367627Y371502D01*
X367496Y371494D01*
X357496D01*
X357365Y371502D01*
X357237Y371528D01*
X357113Y371570D01*
X356995Y371628D01*
X356886Y371701D01*
X356787Y371787D01*
X356701Y371886D01*
X356628Y371995D01*
X356570Y372113D01*
X356528Y372237D01*
X356502Y372365D01*
X356494Y372496D01*
Y381581D01*
X355581Y382494D01*
X346496D01*
X346365Y382503D01*
X346237Y382528D01*
X346113Y382570D01*
X345995Y382628D01*
X345886Y382701D01*
X345787Y382787D01*
X345701Y382886D01*
X345628Y382995D01*
X345570Y383112D01*
X345528Y383237D01*
X345503Y383365D01*
X345494Y383496D01*
Y393496D01*
X345503Y393627D01*
X345528Y393755D01*
X345570Y393880D01*
X345628Y393997D01*
X345701Y394106D01*
X345787Y394205D01*
X345886Y394291D01*
X345995Y394364D01*
X346113Y394422D01*
X346237Y394464D01*
X346365Y394490D01*
X346496Y394498D01*
X367496D01*
X367627Y394490D01*
D02*
G37*
G36*
X78635D02*
X78763Y394464D01*
X78888Y394422D01*
X79005Y394364D01*
X79114Y394291D01*
X79213Y394205D01*
X79299Y394106D01*
X79372Y393997D01*
X79430Y393880D01*
X79472Y393755D01*
X79498Y393627D01*
X79506Y393496D01*
Y383496D01*
X79498Y383365D01*
X79472Y383237D01*
X79430Y383112D01*
X79372Y382995D01*
X79299Y382886D01*
X79213Y382787D01*
X79114Y382701D01*
X79005Y382628D01*
X78888Y382570D01*
X78763Y382528D01*
X78635Y382503D01*
X78504Y382494D01*
X69419D01*
X68506Y381581D01*
Y372496D01*
X68498Y372365D01*
X68472Y372237D01*
X68430Y372113D01*
X68372Y371995D01*
X68299Y371886D01*
X68213Y371787D01*
X68114Y371701D01*
X68005Y371628D01*
X67888Y371570D01*
X67763Y371528D01*
X67635Y371502D01*
X67504Y371494D01*
X57504D01*
X57373Y371502D01*
X57245Y371528D01*
X57120Y371570D01*
X57003Y371628D01*
X56894Y371701D01*
X56795Y371787D01*
X56709Y371886D01*
X56636Y371995D01*
X56578Y372113D01*
X56536Y372237D01*
X56511Y372365D01*
X56502Y372496D01*
Y393496D01*
X56511Y393627D01*
X56536Y393755D01*
X56578Y393880D01*
X56636Y393997D01*
X56709Y394106D01*
X56795Y394205D01*
X56894Y394291D01*
X57003Y394364D01*
X57120Y394422D01*
X57245Y394464D01*
X57373Y394490D01*
X57504Y394498D01*
X78504D01*
X78635Y394490D01*
D02*
G37*
G36*
X367627Y205498D02*
X367755Y205472D01*
X367879Y205430D01*
X367997Y205372D01*
X368106Y205299D01*
X368205Y205213D01*
X368291Y205114D01*
X368364Y205005D01*
X368422Y204888D01*
X368464Y204763D01*
X368490Y204635D01*
X368498Y204504D01*
Y183504D01*
X368490Y183373D01*
X368464Y183245D01*
X368422Y183120D01*
X368364Y183003D01*
X368291Y182894D01*
X368205Y182795D01*
X368106Y182709D01*
X367997Y182636D01*
X367879Y182578D01*
X367755Y182536D01*
X367627Y182511D01*
X367496Y182502D01*
X346496D01*
X346365Y182511D01*
X346237Y182536D01*
X346113Y182578D01*
X345995Y182636D01*
X345886Y182709D01*
X345787Y182795D01*
X345701Y182894D01*
X345628Y183003D01*
X345570Y183120D01*
X345528Y183245D01*
X345503Y183373D01*
X345494Y183504D01*
Y193504D01*
X345503Y193635D01*
X345528Y193763D01*
X345570Y193888D01*
X345628Y194005D01*
X345701Y194114D01*
X345787Y194213D01*
X345886Y194299D01*
X345995Y194372D01*
X346113Y194430D01*
X346237Y194472D01*
X346365Y194498D01*
X346496Y194506D01*
X355581D01*
X356494Y195419D01*
Y204504D01*
X356502Y204635D01*
X356528Y204763D01*
X356570Y204888D01*
X356628Y205005D01*
X356701Y205114D01*
X356787Y205213D01*
X356886Y205299D01*
X356995Y205372D01*
X357113Y205430D01*
X357237Y205472D01*
X357365Y205498D01*
X357496Y205506D01*
X367496D01*
X367627Y205498D01*
D02*
G37*
G36*
X67635D02*
X67763Y205472D01*
X67888Y205430D01*
X68005Y205372D01*
X68114Y205299D01*
X68213Y205213D01*
X68299Y205114D01*
X68372Y205005D01*
X68430Y204888D01*
X68472Y204763D01*
X68498Y204635D01*
X68506Y204504D01*
Y195419D01*
X69419Y194506D01*
X78504D01*
X78635Y194498D01*
X78763Y194472D01*
X78888Y194430D01*
X79005Y194372D01*
X79114Y194299D01*
X79213Y194213D01*
X79299Y194114D01*
X79372Y194005D01*
X79430Y193888D01*
X79472Y193763D01*
X79498Y193635D01*
X79506Y193504D01*
Y183504D01*
X79498Y183373D01*
X79472Y183245D01*
X79430Y183120D01*
X79372Y183003D01*
X79299Y182894D01*
X79213Y182795D01*
X79114Y182709D01*
X79005Y182636D01*
X78888Y182578D01*
X78763Y182536D01*
X78635Y182511D01*
X78504Y182502D01*
X57504D01*
X57373Y182511D01*
X57245Y182536D01*
X57120Y182578D01*
X57003Y182636D01*
X56894Y182709D01*
X56795Y182795D01*
X56709Y182894D01*
X56636Y183003D01*
X56578Y183120D01*
X56536Y183245D01*
X56511Y183373D01*
X56502Y183504D01*
Y204504D01*
X56511Y204635D01*
X56536Y204763D01*
X56578Y204888D01*
X56636Y205005D01*
X56709Y205114D01*
X56795Y205213D01*
X56894Y205299D01*
X57003Y205372D01*
X57120Y205430D01*
X57245Y205472D01*
X57373Y205498D01*
X57504Y205506D01*
X67504D01*
X67635Y205498D01*
D02*
G37*
G36*
X65131Y114994D02*
X65259Y114968D01*
X65384Y114926D01*
X65501Y114868D01*
X65610Y114795D01*
X65709Y114709D01*
X65795Y114610D01*
X65868Y114501D01*
X65926Y114383D01*
X65968Y114259D01*
X65993Y114131D01*
X66002Y114000D01*
Y92002D01*
X88000D01*
X88131Y91994D01*
X88259Y91968D01*
X88384Y91926D01*
X88501Y91868D01*
X88610Y91795D01*
X88709Y91709D01*
X88795Y91610D01*
X88868Y91501D01*
X88926Y91383D01*
X88968Y91259D01*
X88994Y91131D01*
X89002Y91000D01*
Y81000D01*
X88994Y80869D01*
X88968Y80741D01*
X88926Y80617D01*
X88868Y80499D01*
X88795Y80390D01*
X88709Y80291D01*
X88610Y80205D01*
X88501Y80132D01*
X88384Y80074D01*
X88259Y80032D01*
X88131Y80007D01*
X88000Y79998D01*
X55000D01*
X54869Y80007D01*
X54741Y80032D01*
X54616Y80074D01*
X54499Y80132D01*
X54390Y80205D01*
X54291Y80291D01*
X54205Y80390D01*
X54132Y80499D01*
X54074Y80617D01*
X54032Y80741D01*
X54006Y80869D01*
X53998Y81000D01*
Y114000D01*
X54006Y114131D01*
X54032Y114259D01*
X54074Y114383D01*
X54132Y114501D01*
X54205Y114610D01*
X54291Y114709D01*
X54390Y114795D01*
X54499Y114868D01*
X54616Y114926D01*
X54741Y114968D01*
X54869Y114994D01*
X55000Y115002D01*
X65000D01*
X65131Y114994D01*
D02*
G37*
G36*
X370131Y114993D02*
X370259Y114968D01*
X370383Y114926D01*
X370501Y114868D01*
X370610Y114795D01*
X370709Y114709D01*
X370795Y114610D01*
X370868Y114501D01*
X370926Y114383D01*
X370968Y114259D01*
X370993Y114131D01*
X371002Y114000D01*
Y81000D01*
X370993Y80869D01*
X370968Y80741D01*
X370926Y80617D01*
X370868Y80499D01*
X370795Y80390D01*
X370709Y80291D01*
X370610Y80205D01*
X370501Y80132D01*
X370383Y80074D01*
X370259Y80032D01*
X370131Y80006D01*
X370000Y79998D01*
X337000D01*
X336869Y80006D01*
X336741Y80032D01*
X336617Y80074D01*
X336499Y80132D01*
X336390Y80205D01*
X336291Y80291D01*
X336205Y80390D01*
X336132Y80499D01*
X336074Y80617D01*
X336032Y80741D01*
X336006Y80869D01*
X335998Y81000D01*
Y91000D01*
X336006Y91131D01*
X336032Y91259D01*
X336074Y91383D01*
X336132Y91501D01*
X336205Y91610D01*
X336291Y91709D01*
X336390Y91795D01*
X336499Y91868D01*
X336617Y91926D01*
X336741Y91968D01*
X336869Y91994D01*
X337000Y92002D01*
X358998D01*
Y114000D01*
X359006Y114131D01*
X359032Y114259D01*
X359074Y114383D01*
X359132Y114501D01*
X359205Y114610D01*
X359291Y114709D01*
X359390Y114795D01*
X359499Y114868D01*
X359617Y114926D01*
X359741Y114968D01*
X359869Y114993D01*
X360000Y115002D01*
X370000D01*
X370131Y114993D01*
D02*
G37*
G36*
X115131Y62594D02*
X115259Y62568D01*
X115383Y62526D01*
X115501Y62468D01*
X115610Y62395D01*
X115709Y62309D01*
X115795Y62210D01*
X115868Y62101D01*
X115926Y61983D01*
X115968Y61859D01*
X115993Y61731D01*
X116002Y61600D01*
Y50500D01*
X115999Y50452D01*
X115997Y50404D01*
X115995Y50387D01*
X115993Y50369D01*
X115984Y50322D01*
X115976Y50275D01*
X115971Y50258D01*
X115968Y50241D01*
X115952Y50195D01*
X115939Y50149D01*
X115931Y50133D01*
X115926Y50117D01*
X115904Y50073D01*
X115885Y50030D01*
X115876Y50015D01*
X115868Y49999D01*
X115841Y49959D01*
X115816Y49918D01*
X115805Y49904D01*
X115795Y49890D01*
X115764Y49854D01*
X115733Y49817D01*
X115720Y49805D01*
X115709Y49791D01*
X115672Y49760D01*
X115637Y49727D01*
X115623Y49717D01*
X115610Y49705D01*
X115570Y49678D01*
X115531Y49650D01*
X112002Y47445D01*
X112002Y30750D01*
X111993Y30619D01*
X111968Y30491D01*
X111926Y30366D01*
X111868Y30249D01*
X111795Y30140D01*
X111708Y30041D01*
X111610Y29955D01*
X111501Y29882D01*
X111383Y29824D01*
X111259Y29782D01*
X111131Y29756D01*
X111000Y29748D01*
X101000Y29748D01*
X100869Y29757D01*
X100740Y29782D01*
X100616Y29824D01*
X100499Y29882D01*
X100390Y29955D01*
X100291Y30041D01*
X100205Y30140D01*
X100132Y30249D01*
X100074Y30366D01*
X100032Y30491D01*
X100006Y30619D01*
X99998Y30750D01*
X99998Y47445D01*
X96469Y49650D01*
X96430Y49678D01*
X96390Y49705D01*
X96377Y49717D01*
X96362Y49727D01*
X96327Y49760D01*
X96291Y49791D01*
X96280Y49805D01*
X96267Y49817D01*
X96237Y49854D01*
X96205Y49890D01*
X96195Y49905D01*
X96184Y49918D01*
X96159Y49959D01*
X96132Y49999D01*
X96124Y50015D01*
X96115Y50030D01*
X96095Y50073D01*
X96074Y50117D01*
X96068Y50133D01*
X96061Y50149D01*
X96047Y50195D01*
X96032Y50241D01*
X96028Y50258D01*
X96023Y50275D01*
X96016Y50322D01*
X96006Y50369D01*
X96005Y50387D01*
X96002Y50404D01*
X96001Y50452D01*
X95998Y50500D01*
Y61600D01*
X96006Y61731D01*
X96032Y61859D01*
X96074Y61983D01*
X96132Y62101D01*
X96205Y62210D01*
X96291Y62309D01*
X96390Y62395D01*
X96499Y62468D01*
X96616Y62526D01*
X96741Y62568D01*
X96869Y62593D01*
X97000Y62602D01*
X115000Y62602D01*
X115131Y62594D01*
D02*
G37*
G36*
X144131D02*
X144259Y62568D01*
X144383Y62526D01*
X144501Y62468D01*
X144610Y62395D01*
X144708Y62309D01*
X144795Y62210D01*
X144868Y62101D01*
X144926Y61983D01*
X144968Y61859D01*
X144993Y61731D01*
X145002Y61600D01*
Y23250D01*
X144993Y23119D01*
X144968Y22991D01*
X144926Y22866D01*
X144868Y22749D01*
X144795Y22640D01*
X144708Y22541D01*
X144610Y22455D01*
X144501Y22382D01*
X144383Y22324D01*
X144259Y22282D01*
X144131Y22257D01*
X144000Y22248D01*
X128500D01*
Y21825D01*
X125650D01*
Y47925D01*
X126510D01*
X126506Y47944D01*
X126498Y48075D01*
Y61600D01*
X126506Y61731D01*
X126532Y61859D01*
X126574Y61983D01*
X126632Y62101D01*
X126705Y62210D01*
X126791Y62309D01*
X126890Y62395D01*
X126999Y62468D01*
X127116Y62526D01*
X127241Y62568D01*
X127369Y62594D01*
X127500Y62602D01*
X144000D01*
X144131Y62594D01*
D02*
G37*
G36*
X84631D02*
X84759Y62568D01*
X84883Y62526D01*
X85001Y62468D01*
X85110Y62395D01*
X85209Y62309D01*
X85295Y62210D01*
X85368Y62101D01*
X85426Y61983D01*
X85468Y61859D01*
X85493Y61731D01*
X85502Y61600D01*
Y48150D01*
X86200D01*
Y21825D01*
X83350D01*
Y22248D01*
X68000D01*
X67869Y22257D01*
X67741Y22282D01*
X67616Y22324D01*
X67499Y22382D01*
X67390Y22455D01*
X67291Y22541D01*
X67205Y22640D01*
X67132Y22749D01*
X67074Y22866D01*
X67032Y22991D01*
X67006Y23119D01*
X66998Y23250D01*
Y61600D01*
X67006Y61731D01*
X67032Y61859D01*
X67074Y61983D01*
X67132Y62101D01*
X67205Y62210D01*
X67291Y62309D01*
X67390Y62395D01*
X67499Y62468D01*
X67616Y62526D01*
X67741Y62568D01*
X67869Y62594D01*
X68000Y62602D01*
X84500D01*
X84631Y62594D01*
D02*
G37*
D72*
X620000Y0D02*
G03*
X650000Y30000I0J30000D01*
G01*
X650000Y530000D02*
G03*
X620000Y560000I-30000J0D01*
G01*
X572000Y0D02*
X620000D01*
X498000D02*
X572000D01*
X140250D02*
X498000D01*
X140250D02*
Y19250D01*
X71750D02*
X140250D01*
X71750Y0D02*
Y19250D01*
X30000Y0D02*
X71750D01*
X24148Y576D02*
X30000Y0D01*
X18520Y2284D02*
X24148Y576D01*
X13333Y5056D02*
X18520Y2284D01*
X8787Y8787D02*
X13333Y5056D01*
X5056Y13333D02*
X8787Y8787D01*
X2284Y18520D02*
X5056Y13333D01*
X577Y24147D02*
X2284Y18520D01*
X0Y30000D02*
X577Y24147D01*
X0Y30000D02*
Y168500D01*
X49750D01*
Y491250D01*
X0D02*
X49750D01*
X0D02*
Y530000D01*
X577Y535853D01*
X2284Y541480D01*
X5056Y546667D01*
X8787Y551213D01*
X13333Y554944D01*
X18520Y557716D01*
X24148Y559424D01*
X30000Y560000D01*
X62750Y560000D01*
X62750Y565000D02*
X62750Y560000D01*
X62750Y565000D02*
X587250Y565000D01*
X587250Y560000D01*
X620000Y560000D01*
X650000Y30000D02*
X650000Y530000D01*
D106*
X365000Y129375D02*
D03*
X60000D02*
D03*
D107*
X272625Y188250D02*
D03*
D108*
X152500D02*
D03*
D109*
X294875Y389875D02*
D03*
D110*
X150125Y391000D02*
D03*
D111*
X365000Y288500D02*
D03*
D112*
X266000Y86000D02*
D03*
D113*
X60000Y288375D02*
D03*
D114*
X164050Y108250D02*
D03*
X164050Y172250D02*
D03*
X189450Y108250D02*
D03*
X189450Y172250D02*
D03*
D115*
X154750Y127550D02*
D03*
X154750Y140250D02*
D03*
Y152950D02*
D03*
X198750Y140250D02*
D03*
Y127550D02*
D03*
X198750Y152950D02*
D03*
D116*
X168750Y140250D02*
D03*
X184750Y140250D02*
D03*
X409500Y507750D02*
D03*
X425500D02*
D03*
D117*
X280250Y428500D02*
D03*
X275250D02*
D03*
X270250D02*
D03*
X265250D02*
D03*
X260250D02*
D03*
X255250D02*
D03*
X250250D02*
D03*
X245250D02*
D03*
X240250D02*
D03*
X235250D02*
D03*
X230250D02*
D03*
X225250D02*
D03*
Y513500D02*
D03*
X230250D02*
D03*
X235250D02*
D03*
X240250D02*
D03*
X245250D02*
D03*
X250250D02*
D03*
X255250D02*
D03*
X260250D02*
D03*
X265250D02*
D03*
X270250D02*
D03*
X275250D02*
D03*
X280250D02*
D03*
D118*
X210250Y443500D02*
D03*
Y448500D02*
D03*
Y453500D02*
D03*
Y458500D02*
D03*
Y463500D02*
D03*
Y468500D02*
D03*
Y473500D02*
D03*
Y478500D02*
D03*
Y483500D02*
D03*
Y488500D02*
D03*
Y493500D02*
D03*
Y498500D02*
D03*
X295250D02*
D03*
Y493500D02*
D03*
Y488500D02*
D03*
Y483500D02*
D03*
Y478500D02*
D03*
Y473500D02*
D03*
Y468500D02*
D03*
Y463500D02*
D03*
Y458500D02*
D03*
Y453500D02*
D03*
Y448500D02*
D03*
Y443500D02*
D03*
D119*
X134250Y42228D02*
D03*
X77750Y42230D02*
D03*
D120*
X106000Y50250D02*
D03*
X521500Y93250D02*
D03*
D121*
X91250Y35000D02*
D03*
X120750D02*
D03*
X506750Y78000D02*
D03*
X536250D02*
D03*
D122*
X349499Y19250D02*
D03*
X329499D02*
D03*
X339499D02*
D03*
X329499Y48250D02*
D03*
X339499D02*
D03*
X349499D02*
D03*
D123*
X339499Y33750D02*
D03*
D124*
X252500Y188250D02*
D03*
X172500D02*
D03*
D125*
X350000Y86000D02*
D03*
X75000Y86000D02*
D03*
D126*
X365000Y101000D02*
D03*
X60000Y101000D02*
D03*
D127*
X300000Y391000D02*
D03*
X125000D02*
D03*
X250000D02*
D03*
X175000D02*
D03*
X250000Y86000D02*
D03*
X175000D02*
D03*
X300000D02*
D03*
X125000D02*
D03*
D128*
X60000Y276000D02*
D03*
Y151000D02*
D03*
Y326000D02*
D03*
X365000Y276000D02*
D03*
Y326000D02*
D03*
Y151000D02*
D03*
D129*
X102504Y388500D02*
D03*
X322496D02*
D03*
X322496Y188500D02*
D03*
X102504D02*
D03*
D130*
X62500Y348496D02*
D03*
X362500Y348496D02*
D03*
Y228504D02*
D03*
X62500Y228504D02*
D03*
D131*
Y388500D02*
D03*
X362500Y188500D02*
D03*
D132*
Y388500D02*
D03*
X62500Y188500D02*
D03*
D133*
X159750Y69500D02*
D03*
Y50500D02*
D03*
D134*
X200100Y405300D02*
D03*
X191100D02*
D03*
X206000Y414050D02*
D03*
X215000D02*
D03*
X101500Y155750D02*
D03*
X110500D02*
D03*
X384000Y505000D02*
D03*
X393000D02*
D03*
X67750Y544500D02*
D03*
X76750D02*
D03*
X86750Y554250D02*
D03*
X77750D02*
D03*
X303500Y413500D02*
D03*
X294500D02*
D03*
X317000Y417000D02*
D03*
X326000D02*
D03*
X363250Y544250D02*
D03*
X354250D02*
D03*
X363250Y554000D02*
D03*
X354250D02*
D03*
X208000Y212500D02*
D03*
X217000D02*
D03*
X348500Y286500D02*
D03*
X339500D02*
D03*
X245500Y321500D02*
D03*
X254500D02*
D03*
X202000Y286500D02*
D03*
X193000D02*
D03*
X98250Y321000D02*
D03*
X107250D02*
D03*
X121750Y131250D02*
D03*
X130750D02*
D03*
X341750Y511000D02*
D03*
X332750D02*
D03*
X280000Y532000D02*
D03*
X271000D02*
D03*
X436000Y20750D02*
D03*
X445000D02*
D03*
X400000Y21000D02*
D03*
X409000D02*
D03*
X364000Y21250D02*
D03*
X373000D02*
D03*
X369250Y62750D02*
D03*
X360250D02*
D03*
X330250Y405751D02*
D03*
X321250D02*
D03*
X292250Y404000D02*
D03*
X301250D02*
D03*
D135*
X92750Y72750D02*
D03*
X99750D02*
D03*
X522500Y133750D02*
D03*
X529500D02*
D03*
D136*
X13500Y504250D02*
D03*
X30000Y65000D02*
D03*
X630000Y500000D02*
D03*
X553600Y525000D02*
D03*
X96400D02*
D03*
D137*
X393750Y48750D02*
D03*
X400250Y30250D02*
D03*
X406750Y48750D02*
D03*
X444250Y48500D02*
D03*
X450750Y30000D02*
D03*
X457250Y48500D02*
D03*
X419000Y48750D02*
D03*
X425500Y30250D02*
D03*
X432000Y48750D02*
D03*
D138*
X361525Y47500D02*
D03*
X374475Y42500D02*
D03*
Y52500D02*
D03*
D139*
X203749Y21500D02*
D03*
Y59000D02*
D03*
Y46500D02*
D03*
Y34000D02*
D03*
X225749Y21500D02*
D03*
Y46500D02*
D03*
Y34000D02*
D03*
Y59000D02*
D03*
D140*
X269999Y17250D02*
D03*
X265999D02*
D03*
Y48250D02*
D03*
X273999Y17250D02*
D03*
X277999D02*
D03*
X285999D02*
D03*
X281999D02*
D03*
X269999Y48250D02*
D03*
X273999D02*
D03*
X277999D02*
D03*
X285999D02*
D03*
X281999D02*
D03*
D141*
X260499Y30750D02*
D03*
Y22750D02*
D03*
Y26750D02*
D03*
Y34750D02*
D03*
Y38750D02*
D03*
Y42750D02*
D03*
X291499Y22750D02*
D03*
Y26750D02*
D03*
Y38750D02*
D03*
Y30750D02*
D03*
Y34750D02*
D03*
Y42750D02*
D03*
D142*
X399499Y9000D02*
D03*
X419499D02*
D03*
X363499D02*
D03*
X383499D02*
D03*
X435500D02*
D03*
X455500D02*
D03*
D143*
X440750Y230500D02*
D03*
X466150D02*
D03*
X440750Y385500D02*
D03*
X466150D02*
D03*
X491550Y230500D02*
D03*
X516950D02*
D03*
X567750D02*
D03*
X542350D02*
D03*
X491550Y385500D02*
D03*
X516950D02*
D03*
X542350D02*
D03*
X567750D02*
D03*
D144*
X74125Y267750D02*
D03*
Y288250D02*
D03*
X88625Y267750D02*
D03*
Y288250D02*
D03*
X221750Y267750D02*
D03*
Y288250D02*
D03*
X236250Y267750D02*
D03*
Y288250D02*
D03*
D145*
X378250Y533000D02*
D03*
Y546000D02*
D03*
Y539500D02*
D03*
Y552500D02*
D03*
X435250Y539500D02*
D03*
Y533000D02*
D03*
Y552500D02*
D03*
Y546000D02*
D03*
D146*
X70750Y412500D02*
D03*
X100750D02*
D03*
D147*
X89500Y433000D02*
D03*
D148*
X70000D02*
D03*
D149*
X107750Y471250D02*
D03*
Y485750D02*
D03*
X326250Y443000D02*
D03*
Y428500D02*
D03*
X234500Y339250D02*
D03*
Y353750D02*
D03*
X78000Y340750D02*
D03*
Y355250D02*
D03*
D150*
X245650Y417150D02*
D03*
Y406950D02*
D03*
X316250Y13400D02*
D03*
Y23600D02*
D03*
X343000Y469650D02*
D03*
Y479850D02*
D03*
X239500Y543350D02*
D03*
Y533150D02*
D03*
X139750Y131400D02*
D03*
Y141600D02*
D03*
X282750Y278650D02*
D03*
Y288850D02*
D03*
X297000Y220650D02*
D03*
Y230850D02*
D03*
X294750Y278650D02*
D03*
Y288850D02*
D03*
X256250Y347350D02*
D03*
Y337150D02*
D03*
X246500Y347350D02*
D03*
Y337150D02*
D03*
X329000Y284900D02*
D03*
Y295100D02*
D03*
X226999Y297400D02*
D03*
Y307600D02*
D03*
X227000Y326850D02*
D03*
Y316650D02*
D03*
X111250Y372100D02*
D03*
Y361900D02*
D03*
X100750Y372100D02*
D03*
Y361900D02*
D03*
X135625Y278150D02*
D03*
Y288350D02*
D03*
X149875Y220150D02*
D03*
Y230350D02*
D03*
X147625Y278150D02*
D03*
Y288350D02*
D03*
X108500Y347350D02*
D03*
Y337150D02*
D03*
X98000Y347350D02*
D03*
Y337150D02*
D03*
X182625Y284650D02*
D03*
Y294850D02*
D03*
X79375Y297400D02*
D03*
Y307600D02*
D03*
X79375Y326100D02*
D03*
Y315900D02*
D03*
X139000Y108100D02*
D03*
Y97900D02*
D03*
X174000Y62350D02*
D03*
Y52150D02*
D03*
X213700Y139850D02*
D03*
Y150050D02*
D03*
X191249Y37400D02*
D03*
Y47600D02*
D03*
X301999Y13150D02*
D03*
Y23350D02*
D03*
X197500Y447850D02*
D03*
Y437650D02*
D03*
X309500Y475150D02*
D03*
Y485350D02*
D03*
X308500Y433400D02*
D03*
Y443600D02*
D03*
X123000Y526600D02*
D03*
Y516400D02*
D03*
X95750Y473100D02*
D03*
Y462900D02*
D03*
X59500Y501600D02*
D03*
Y491400D02*
D03*
X136000Y488100D02*
D03*
Y477900D02*
D03*
D151*
X120625Y309500D02*
D03*
Y324500D02*
D03*
Y314500D02*
D03*
Y319500D02*
D03*
Y329500D02*
D03*
Y334500D02*
D03*
Y339500D02*
D03*
X167125Y309500D02*
D03*
Y314500D02*
D03*
Y319500D02*
D03*
Y334500D02*
D03*
Y324500D02*
D03*
Y329500D02*
D03*
Y339500D02*
D03*
X267750Y310000D02*
D03*
Y325000D02*
D03*
Y315000D02*
D03*
Y320000D02*
D03*
Y330000D02*
D03*
Y335000D02*
D03*
Y340000D02*
D03*
X314250Y310000D02*
D03*
Y315000D02*
D03*
Y320000D02*
D03*
Y335000D02*
D03*
Y325000D02*
D03*
Y330000D02*
D03*
Y340000D02*
D03*
D152*
X133875Y301250D02*
D03*
X128875D02*
D03*
X133875Y347750D02*
D03*
X128875D02*
D03*
X138875Y301250D02*
D03*
X148875D02*
D03*
X143875D02*
D03*
X153875D02*
D03*
X158875D02*
D03*
X143875Y347750D02*
D03*
X138875D02*
D03*
X153875D02*
D03*
X148875D02*
D03*
X158875D02*
D03*
X281000Y301750D02*
D03*
X276000D02*
D03*
X281000Y348250D02*
D03*
X276000D02*
D03*
X286000Y301750D02*
D03*
X296000D02*
D03*
X291000D02*
D03*
X301000D02*
D03*
X306000D02*
D03*
X291000Y348250D02*
D03*
X286000D02*
D03*
X301000D02*
D03*
X296000D02*
D03*
X306000D02*
D03*
D153*
X143875Y324500D02*
D03*
X291000Y325000D02*
D03*
D154*
X110432Y131250D02*
D03*
X90432Y144250D02*
D03*
Y131250D02*
D03*
D155*
X110432Y142750D02*
D03*
D156*
X84000Y461750D02*
D03*
Y471250D02*
D03*
Y480750D02*
D03*
X60000D02*
D03*
Y461750D02*
D03*
D157*
X37400Y130300D02*
D03*
Y140300D02*
D03*
X440500Y509500D02*
D03*
Y499500D02*
D03*
X331500Y554750D02*
D03*
Y544750D02*
D03*
X458500Y81750D02*
D03*
Y71750D02*
D03*
X379000Y111250D02*
D03*
Y101250D02*
D03*
D158*
X159500Y281500D02*
D03*
X172250D02*
D03*
X257875Y282000D02*
D03*
X270625D02*
D03*
X306625D02*
D03*
X319375D02*
D03*
X110750Y281500D02*
D03*
X123500D02*
D03*
D159*
X150125Y255875D02*
D03*
Y268625D02*
D03*
X230750Y199625D02*
D03*
Y212375D02*
D03*
X280250Y220863D02*
D03*
Y233613D02*
D03*
Y256375D02*
D03*
Y269125D02*
D03*
X297000Y256375D02*
D03*
Y269125D02*
D03*
X133125Y220375D02*
D03*
Y233125D02*
D03*
Y255875D02*
D03*
Y268625D02*
D03*
X194250Y199750D02*
D03*
Y212500D02*
D03*
D160*
X110375Y111250D02*
D03*
X123125D02*
D03*
D161*
X183875Y323125D02*
D03*
Y310375D02*
D03*
X331000Y323875D02*
D03*
Y311125D02*
D03*
D162*
X83750Y246500D02*
D03*
X73750D02*
D03*
X221500Y336750D02*
D03*
X211500D02*
D03*
X231250Y247250D02*
D03*
X221250D02*
D03*
D163*
X121750Y497400D02*
D03*
X121750Y480100D02*
D03*
X72000Y473350D02*
D03*
Y490650D02*
D03*
D164*
X457399Y511250D02*
D03*
Y551250D02*
D03*
Y531250D02*
D03*
X503099Y511250D02*
D03*
Y531250D02*
D03*
Y551250D02*
D03*
X529400Y551250D02*
D03*
X575100D02*
D03*
X529400Y531250D02*
D03*
X575100D02*
D03*
X529400Y511250D02*
D03*
X575100D02*
D03*
X127400Y437000D02*
D03*
Y417000D02*
D03*
Y457000D02*
D03*
X173100Y437000D02*
D03*
Y417000D02*
D03*
Y457000D02*
D03*
X140401Y504250D02*
D03*
Y544250D02*
D03*
Y524250D02*
D03*
X186101Y504250D02*
D03*
Y524250D02*
D03*
Y544250D02*
D03*
D165*
X353250Y479500D02*
D03*
Y470500D02*
D03*
X363250Y479500D02*
D03*
Y470500D02*
D03*
X316000Y549000D02*
D03*
Y540000D02*
D03*
X333750Y455250D02*
D03*
Y464250D02*
D03*
X208750Y525000D02*
D03*
Y534000D02*
D03*
X109500Y440750D02*
D03*
Y431750D02*
D03*
X341500Y532000D02*
D03*
Y541000D02*
D03*
X236500Y317000D02*
D03*
Y308000D02*
D03*
X89125Y316500D02*
D03*
Y307500D02*
D03*
X542500Y189000D02*
D03*
Y180000D02*
D03*
X542250Y419250D02*
D03*
Y410250D02*
D03*
X77000Y117250D02*
D03*
Y126250D02*
D03*
X98000Y103250D02*
D03*
Y112250D02*
D03*
X383250Y43000D02*
D03*
Y52000D02*
D03*
X304250Y54750D02*
D03*
Y63750D02*
D03*
X260450Y405000D02*
D03*
Y414000D02*
D03*
X357000Y526500D02*
D03*
Y517500D02*
D03*
X211250Y551500D02*
D03*
Y542500D02*
D03*
X37400Y112400D02*
D03*
Y121400D02*
D03*
D166*
X276400Y74000D02*
D03*
X286600D02*
D03*
X228350Y527000D02*
D03*
X218150D02*
D03*
X318850Y465500D02*
D03*
X308650D02*
D03*
X366900Y518750D02*
D03*
X377100D02*
D03*
X86850Y107500D02*
D03*
X76650D02*
D03*
X218350Y356250D02*
D03*
X208150D02*
D03*
X218350Y346500D02*
D03*
X208150D02*
D03*
X270650Y245000D02*
D03*
X280850D02*
D03*
X254650Y268750D02*
D03*
X264850D02*
D03*
X247400Y299750D02*
D03*
X257600D02*
D03*
X312400Y268750D02*
D03*
X322600D02*
D03*
X348600Y296750D02*
D03*
X338400D02*
D03*
X339400Y276250D02*
D03*
X349600D02*
D03*
X231350Y257250D02*
D03*
X221150D02*
D03*
X123525Y244500D02*
D03*
X133725D02*
D03*
X107525Y268250D02*
D03*
X117725D02*
D03*
X100150Y299500D02*
D03*
X110350D02*
D03*
X165275Y268250D02*
D03*
X175475D02*
D03*
X202350Y296750D02*
D03*
X192150D02*
D03*
X192400Y276250D02*
D03*
X202600D02*
D03*
X84600Y448250D02*
D03*
X74400D02*
D03*
X552100Y170500D02*
D03*
X541900D02*
D03*
X552100Y199000D02*
D03*
X541900D02*
D03*
X509100Y418250D02*
D03*
X498900D02*
D03*
X509100Y408000D02*
D03*
X498900D02*
D03*
X84100Y256750D02*
D03*
X73900D02*
D03*
X203850Y222500D02*
D03*
X193650D02*
D03*
X180850Y212500D02*
D03*
X170650D02*
D03*
X223350Y159250D02*
D03*
X213150D02*
D03*
X223350Y169250D02*
D03*
X213150D02*
D03*
X221150Y222500D02*
D03*
X231350D02*
D03*
X244150Y212500D02*
D03*
X254350D02*
D03*
X116400Y97500D02*
D03*
X126600D02*
D03*
X349599Y59250D02*
D03*
X339399D02*
D03*
X276399Y59000D02*
D03*
X286599D02*
D03*
X318599Y36250D02*
D03*
X308399D02*
D03*
X275150Y416250D02*
D03*
X285350D02*
D03*
X361900Y32250D02*
D03*
X372100D02*
D03*
X230600Y545250D02*
D03*
X220400D02*
D03*
X521350Y498000D02*
D03*
X511150D02*
D03*
D167*
X341818Y448182D02*
D03*
X348182Y441818D02*
D03*
X301932Y528318D02*
D03*
X295568Y534682D02*
D03*
D168*
X90250Y351500D02*
D03*
Y361500D02*
D03*
D169*
X149750Y242750D02*
D03*
X162500D02*
D03*
X297125Y243250D02*
D03*
X309875D02*
D03*
D170*
X89356Y507106D02*
D03*
X82144Y499893D02*
D03*
D171*
X493500Y430250D02*
D03*
X508000D02*
D03*
D172*
X437000Y520750D02*
D03*
X427000D02*
D03*
X360500Y73750D02*
D03*
X370500D02*
D03*
D173*
X390750Y92000D02*
D03*
X435750D02*
D03*
X390750Y72000D02*
D03*
X435750D02*
D03*
D174*
X559600Y37750D02*
D03*
X483400D02*
D03*
D175*
X521500Y113950D02*
D03*
D176*
X148500Y406000D02*
D03*
X148500Y486000D02*
D03*
X148500Y466000D02*
D03*
Y446000D02*
D03*
Y426000D02*
D03*
X416751Y520250D02*
D03*
X396751D02*
D03*
D177*
X35000Y35000D02*
D03*
Y525000D02*
D03*
X615000D02*
D03*
Y35000D02*
D03*
D178*
X76750Y14250D02*
D03*
X135250Y14250D02*
D03*
D179*
X42500Y84000D02*
D03*
X17500Y96500D02*
D03*
Y141500D02*
D03*
X42500Y154000D02*
D03*
D180*
X132875Y335500D02*
D03*
Y313500D02*
D03*
Y324500D02*
D03*
X143875Y313500D02*
D03*
Y324500D02*
D03*
X154875Y313500D02*
D03*
X143875Y335500D02*
D03*
X154875Y324500D02*
D03*
Y335500D02*
D03*
X280000Y336000D02*
D03*
Y314000D02*
D03*
Y325000D02*
D03*
X291000Y314000D02*
D03*
Y325000D02*
D03*
X302000Y314000D02*
D03*
X291000Y336000D02*
D03*
X302000Y325000D02*
D03*
Y336000D02*
D03*
M02*
