G04 Layer_Color=32896*
%FSLAX44Y44*%
%MOMM*%
G71*
G01*
G75*
%ADD72C,0.1500*%
%ADD77C,0.4000*%
D72*
X620000Y0D02*
G03*
X650000Y30000I0J30000D01*
G01*
X650000Y530000D02*
G03*
X620000Y560000I-30000J0D01*
G01*
X572000Y0D02*
X620000D01*
X498000D02*
X572000D01*
X140250D02*
X498000D01*
X140250D02*
Y19250D01*
X71750D02*
X140250D01*
X71750Y0D02*
Y19250D01*
X30000Y0D02*
X71750D01*
X24148Y576D02*
X30000Y0D01*
X18520Y2284D02*
X24148Y576D01*
X13333Y5056D02*
X18520Y2284D01*
X8787Y8787D02*
X13333Y5056D01*
X5056Y13333D02*
X8787Y8787D01*
X2284Y18520D02*
X5056Y13333D01*
X577Y24147D02*
X2284Y18520D01*
X0Y30000D02*
X577Y24147D01*
X0Y30000D02*
Y168500D01*
X49750D01*
Y491250D01*
X0D02*
X49750D01*
X0D02*
Y530000D01*
X577Y535853D01*
X2284Y541480D01*
X5056Y546667D01*
X8787Y551213D01*
X13333Y554944D01*
X18520Y557716D01*
X24148Y559424D01*
X30000Y560000D01*
X62750Y560000D01*
X62750Y565000D02*
X62750Y560000D01*
X62750Y565000D02*
X587250Y565000D01*
X587250Y560000D01*
X620000Y560000D01*
X650000Y30000D02*
X650000Y530000D01*
D77*
X303000Y336000D02*
G03*
X303000Y336000I-1000J0D01*
G01*
X292000D02*
G03*
X292000Y336000I-1000J0D01*
G01*
X281000D02*
G03*
X281000Y336000I-1000J0D01*
G01*
Y325000D02*
G03*
X281000Y325000I-1000J0D01*
G01*
X292000D02*
G03*
X292000Y325000I-1000J0D01*
G01*
X303000D02*
G03*
X303000Y325000I-1000J0D01*
G01*
Y314000D02*
G03*
X303000Y314000I-1000J0D01*
G01*
X292000D02*
G03*
X292000Y314000I-1000J0D01*
G01*
X281000D02*
G03*
X281000Y314000I-1000J0D01*
G01*
X155875Y335500D02*
G03*
X155875Y335500I-1000J0D01*
G01*
X144875D02*
G03*
X144875Y335500I-1000J0D01*
G01*
X133875D02*
G03*
X133875Y335500I-1000J0D01*
G01*
Y324500D02*
G03*
X133875Y324500I-1000J0D01*
G01*
X144875D02*
G03*
X144875Y324500I-1000J0D01*
G01*
X155875D02*
G03*
X155875Y324500I-1000J0D01*
G01*
Y313500D02*
G03*
X155875Y313500I-1000J0D01*
G01*
X144875D02*
G03*
X144875Y313500I-1000J0D01*
G01*
X133875D02*
G03*
X133875Y313500I-1000J0D01*
G01*
M02*
