G04 Layer_Color=8421504*
%FSLAX44Y44*%
%MOMM*%
G71*
G01*
G75*
%ADD11R,0.8000X1.4000*%
%ADD12R,1.4000X0.8000*%
%ADD13R,0.9000X1.0000*%
%ADD14R,0.3000X1.2000*%
%ADD15R,1.2000X0.3000*%
%ADD19R,0.4500X0.8500*%
%ADD20R,2.5000X1.6000*%
%ADD26R,0.8000X1.0000*%
%ADD27R,1.0000X0.8000*%
%ADD28R,0.5000X0.5000*%
%ADD29R,0.5000X0.5000*%
%ADD30R,1.4400X0.9500*%
%ADD31R,0.5500X0.5500*%
%ADD32R,0.4000X0.7000*%
%ADD34R,0.6000X0.5500*%
%ADD35R,0.5080X0.3560*%
%ADD36R,1.1000X0.6000*%
%ADD37R,0.2000X0.6000*%
%ADD38R,0.6000X0.2000*%
%ADD39R,1.1000X1.1000*%
%ADD40R,1.0000X2.5000*%
%ADD41R,0.9000X0.8000*%
%ADD42R,1.7000X0.3500*%
%ADD43R,1.1500X1.8000*%
%ADD44R,0.9500X1.4500*%
%ADD45R,0.9500X1.4400*%
%ADD46R,0.9500X0.7000*%
%ADD47R,0.6200X0.5000*%
%ADD48R,1.0000X0.2500*%
%ADD49R,0.2500X1.0000*%
%ADD50R,3.2500X3.2500*%
%ADD51R,1.0000X0.6000*%
%ADD52R,1.0000X0.9000*%
%ADD53R,1.0500X0.6000*%
%ADD54R,0.6500X0.5500*%
%ADD55R,0.6250X1.0000*%
%ADD56R,0.7620X0.6250*%
%ADD57R,0.6250X1.0000*%
%ADD58R,1.0000X0.6250*%
%ADD59R,0.5000X0.6000*%
%ADD60R,1.0000X0.9300*%
%ADD61R,2.0300X0.8500*%
%ADD62R,0.5500X0.5500*%
%ADD63R,0.5000X0.6200*%
%ADD64P,0.7778X4X90.0*%
%ADD65R,0.6000X0.5000*%
%ADD66R,0.6250X0.7620*%
G04:AMPARAMS|DCode=67|XSize=0.62mm|YSize=0.5mm|CornerRadius=0mm|HoleSize=0mm|Usage=FLASHONLY|Rotation=315.000|XOffset=0mm|YOffset=0mm|HoleType=Round|Shape=Rectangle|*
%AMROTATEDRECTD67*
4,1,4,-0.3960,0.0424,-0.0424,0.3960,0.3960,-0.0424,0.0424,-0.3960,-0.3960,0.0424,0.0*
%
%ADD67ROTATEDRECTD67*%

%ADD68R,0.7000X0.9500*%
%ADD69R,0.5500X0.6500*%
%ADD72C,0.1500*%
G36*
X367496Y183504D02*
X346496D01*
Y193504D01*
X355996D01*
X357496Y195004D01*
Y204504D01*
X367496D01*
Y183504D01*
D02*
G37*
G36*
X67504Y195004D02*
X69004Y193504D01*
X78504D01*
Y183504D01*
X57504D01*
Y204504D01*
X67504D01*
Y195004D01*
D02*
G37*
G36*
X367496Y372496D02*
X357496D01*
Y381996D01*
X355996Y383496D01*
X346496D01*
Y393496D01*
X367496D01*
Y372496D01*
D02*
G37*
G36*
X78504Y383496D02*
X69004D01*
X67504Y381996D01*
Y372496D01*
X57504D01*
Y393496D01*
X78504D01*
Y383496D01*
D02*
G37*
D11*
X164050Y108250D02*
D03*
X164050Y172250D02*
D03*
X189450Y108250D02*
D03*
X189450Y172250D02*
D03*
D12*
X154750Y127550D02*
D03*
X154750Y140250D02*
D03*
Y152950D02*
D03*
X198750Y140250D02*
D03*
Y127550D02*
D03*
X198750Y152950D02*
D03*
D13*
X409500Y507750D02*
D03*
X425500D02*
D03*
D14*
X280250Y428500D02*
D03*
X275250D02*
D03*
X270250D02*
D03*
X265250D02*
D03*
X260250D02*
D03*
X255250D02*
D03*
X250250D02*
D03*
X245250D02*
D03*
X240250D02*
D03*
X235250D02*
D03*
X230250D02*
D03*
X225250D02*
D03*
Y513500D02*
D03*
X230250D02*
D03*
X235250D02*
D03*
X240250D02*
D03*
X245250D02*
D03*
X250250D02*
D03*
X255250D02*
D03*
X260250D02*
D03*
X265250D02*
D03*
X270250D02*
D03*
X275250D02*
D03*
X280250D02*
D03*
D15*
X210250Y443500D02*
D03*
Y448500D02*
D03*
Y453500D02*
D03*
Y458500D02*
D03*
Y463500D02*
D03*
Y468500D02*
D03*
Y473500D02*
D03*
Y478500D02*
D03*
Y483500D02*
D03*
Y488500D02*
D03*
Y493500D02*
D03*
Y498500D02*
D03*
X295250D02*
D03*
Y493500D02*
D03*
Y488500D02*
D03*
Y483500D02*
D03*
Y478500D02*
D03*
Y473500D02*
D03*
Y468500D02*
D03*
Y463500D02*
D03*
Y458500D02*
D03*
Y453500D02*
D03*
Y448500D02*
D03*
Y443500D02*
D03*
D19*
X349499Y19250D02*
D03*
X329499D02*
D03*
X339499D02*
D03*
X329499Y48250D02*
D03*
X339499D02*
D03*
X349499D02*
D03*
D20*
X339499Y33750D02*
D03*
D26*
X102504Y388500D02*
D03*
X322496D02*
D03*
X322496Y188500D02*
D03*
X102504D02*
D03*
D27*
X62500Y348496D02*
D03*
X362500Y348496D02*
D03*
Y228504D02*
D03*
X62500Y228504D02*
D03*
D28*
Y388500D02*
D03*
X362500Y188500D02*
D03*
D29*
Y388500D02*
D03*
X62500Y188500D02*
D03*
D30*
X159750Y69500D02*
D03*
Y50500D02*
D03*
D31*
X200100Y405300D02*
D03*
X191100D02*
D03*
X206000Y414050D02*
D03*
X215000D02*
D03*
X101500Y155750D02*
D03*
X110500D02*
D03*
X384000Y505000D02*
D03*
X393000D02*
D03*
X67750Y544500D02*
D03*
X76750D02*
D03*
X86750Y554250D02*
D03*
X77750D02*
D03*
X303500Y413500D02*
D03*
X294500D02*
D03*
X317000Y417000D02*
D03*
X326000D02*
D03*
X363250Y544250D02*
D03*
X354250D02*
D03*
X363250Y554000D02*
D03*
X354250D02*
D03*
X208000Y212500D02*
D03*
X217000D02*
D03*
X348500Y286500D02*
D03*
X339500D02*
D03*
X245500Y321500D02*
D03*
X254500D02*
D03*
X202000Y286500D02*
D03*
X193000D02*
D03*
X98250Y321000D02*
D03*
X107250D02*
D03*
X121750Y131250D02*
D03*
X130750D02*
D03*
X341750Y511000D02*
D03*
X332750D02*
D03*
X280000Y532000D02*
D03*
X271000D02*
D03*
X436000Y20750D02*
D03*
X445000D02*
D03*
X400000Y21000D02*
D03*
X409000D02*
D03*
X364000Y21250D02*
D03*
X373000D02*
D03*
X369250Y62750D02*
D03*
X360250D02*
D03*
X330250Y405751D02*
D03*
X321250D02*
D03*
X292250Y404000D02*
D03*
X301250D02*
D03*
D32*
X92750Y72750D02*
D03*
X99750D02*
D03*
X522500Y133750D02*
D03*
X529500D02*
D03*
D34*
X393750Y48750D02*
D03*
X400250Y30250D02*
D03*
X406750Y48750D02*
D03*
X444250Y48500D02*
D03*
X450750Y30000D02*
D03*
X457250Y48500D02*
D03*
X419000Y48750D02*
D03*
X425500Y30250D02*
D03*
X432000Y48750D02*
D03*
D35*
X361525Y47500D02*
D03*
X374475Y42500D02*
D03*
Y52500D02*
D03*
D36*
X203749Y21500D02*
D03*
Y59000D02*
D03*
Y46500D02*
D03*
Y34000D02*
D03*
X225749Y21500D02*
D03*
Y46500D02*
D03*
Y34000D02*
D03*
Y59000D02*
D03*
D37*
X269999Y17250D02*
D03*
X265999D02*
D03*
Y48250D02*
D03*
X273999Y17250D02*
D03*
X277999D02*
D03*
X285999D02*
D03*
X281999D02*
D03*
X269999Y48250D02*
D03*
X273999D02*
D03*
X277999D02*
D03*
X285999D02*
D03*
X281999D02*
D03*
D38*
X260499Y30750D02*
D03*
Y22750D02*
D03*
Y26750D02*
D03*
Y34750D02*
D03*
Y38750D02*
D03*
Y42750D02*
D03*
X291499Y22750D02*
D03*
Y26750D02*
D03*
Y38750D02*
D03*
Y30750D02*
D03*
Y34750D02*
D03*
Y42750D02*
D03*
D39*
X399499Y9000D02*
D03*
X419499D02*
D03*
X363499D02*
D03*
X383499D02*
D03*
X435500D02*
D03*
X455500D02*
D03*
D40*
X440750Y230500D02*
D03*
X466150D02*
D03*
X440750Y385500D02*
D03*
X466150D02*
D03*
X491550Y230500D02*
D03*
X516950D02*
D03*
X567750D02*
D03*
X542350D02*
D03*
X491550Y385500D02*
D03*
X516950D02*
D03*
X542350D02*
D03*
X567750D02*
D03*
D41*
X74125Y267750D02*
D03*
Y288250D02*
D03*
X88625Y267750D02*
D03*
Y288250D02*
D03*
X221750Y267750D02*
D03*
Y288250D02*
D03*
X236250Y267750D02*
D03*
Y288250D02*
D03*
D42*
X378250Y533000D02*
D03*
Y546000D02*
D03*
Y539500D02*
D03*
Y552500D02*
D03*
X435250Y539500D02*
D03*
Y533000D02*
D03*
Y552500D02*
D03*
Y546000D02*
D03*
D43*
X70750Y412500D02*
D03*
X100750D02*
D03*
D44*
X89500Y433000D02*
D03*
D45*
X70000D02*
D03*
D46*
X107750Y471250D02*
D03*
Y485750D02*
D03*
X326250Y443000D02*
D03*
Y428500D02*
D03*
X234500Y339250D02*
D03*
Y353750D02*
D03*
X78000Y340750D02*
D03*
Y355250D02*
D03*
D47*
X245650Y417150D02*
D03*
Y406950D02*
D03*
X316250Y13400D02*
D03*
Y23600D02*
D03*
X343000Y469650D02*
D03*
Y479850D02*
D03*
X239500Y543350D02*
D03*
Y533150D02*
D03*
X139750Y131400D02*
D03*
Y141600D02*
D03*
X282750Y278650D02*
D03*
Y288850D02*
D03*
X297000Y220650D02*
D03*
Y230850D02*
D03*
X294750Y278650D02*
D03*
Y288850D02*
D03*
X256250Y347350D02*
D03*
Y337150D02*
D03*
X246500Y347350D02*
D03*
Y337150D02*
D03*
X329000Y284900D02*
D03*
Y295100D02*
D03*
X226999Y297400D02*
D03*
Y307600D02*
D03*
X227000Y326850D02*
D03*
Y316650D02*
D03*
X111250Y372100D02*
D03*
Y361900D02*
D03*
X100750Y372100D02*
D03*
Y361900D02*
D03*
X135625Y278150D02*
D03*
Y288350D02*
D03*
X149875Y220150D02*
D03*
Y230350D02*
D03*
X147625Y278150D02*
D03*
Y288350D02*
D03*
X108500Y347350D02*
D03*
Y337150D02*
D03*
X98000Y347350D02*
D03*
Y337150D02*
D03*
X182625Y284650D02*
D03*
Y294850D02*
D03*
X79375Y297400D02*
D03*
Y307600D02*
D03*
X79375Y326100D02*
D03*
Y315900D02*
D03*
X139000Y108100D02*
D03*
Y97900D02*
D03*
X174000Y62350D02*
D03*
Y52150D02*
D03*
X213700Y139850D02*
D03*
Y150050D02*
D03*
X191249Y37400D02*
D03*
Y47600D02*
D03*
X301999Y13150D02*
D03*
Y23350D02*
D03*
X197500Y447850D02*
D03*
Y437650D02*
D03*
X309500Y475150D02*
D03*
Y485350D02*
D03*
X308500Y433400D02*
D03*
Y443600D02*
D03*
X123000Y526600D02*
D03*
Y516400D02*
D03*
X95750Y473100D02*
D03*
Y462900D02*
D03*
X59500Y501600D02*
D03*
Y491400D02*
D03*
X136000Y488100D02*
D03*
Y477900D02*
D03*
D48*
X120625Y309500D02*
D03*
Y324500D02*
D03*
Y314500D02*
D03*
Y319500D02*
D03*
Y329500D02*
D03*
Y334500D02*
D03*
Y339500D02*
D03*
X167125Y309500D02*
D03*
Y314500D02*
D03*
Y319500D02*
D03*
Y334500D02*
D03*
Y324500D02*
D03*
Y329500D02*
D03*
Y339500D02*
D03*
X267750Y310000D02*
D03*
Y325000D02*
D03*
Y315000D02*
D03*
Y320000D02*
D03*
Y330000D02*
D03*
Y335000D02*
D03*
Y340000D02*
D03*
X314250Y310000D02*
D03*
Y315000D02*
D03*
Y320000D02*
D03*
Y335000D02*
D03*
Y325000D02*
D03*
Y330000D02*
D03*
Y340000D02*
D03*
D49*
X133875Y301250D02*
D03*
X128875D02*
D03*
X133875Y347750D02*
D03*
X128875D02*
D03*
X138875Y301250D02*
D03*
X148875D02*
D03*
X143875D02*
D03*
X153875D02*
D03*
X158875D02*
D03*
X143875Y347750D02*
D03*
X138875D02*
D03*
X153875D02*
D03*
X148875D02*
D03*
X158875D02*
D03*
X281000Y301750D02*
D03*
X276000D02*
D03*
X281000Y348250D02*
D03*
X276000D02*
D03*
X286000Y301750D02*
D03*
X296000D02*
D03*
X291000D02*
D03*
X301000D02*
D03*
X306000D02*
D03*
X291000Y348250D02*
D03*
X286000D02*
D03*
X301000D02*
D03*
X296000D02*
D03*
X306000D02*
D03*
D50*
X143875Y324500D02*
D03*
X291000Y325000D02*
D03*
D51*
X110432Y131250D02*
D03*
X90432Y144250D02*
D03*
Y131250D02*
D03*
D52*
X110432Y142750D02*
D03*
D53*
X84000Y461750D02*
D03*
Y471250D02*
D03*
Y480750D02*
D03*
X60000D02*
D03*
Y461750D02*
D03*
D54*
X37400Y130300D02*
D03*
Y140300D02*
D03*
X440500Y509500D02*
D03*
Y499500D02*
D03*
X331500Y554750D02*
D03*
Y544750D02*
D03*
X458500Y81750D02*
D03*
Y71750D02*
D03*
X379000Y111250D02*
D03*
Y101250D02*
D03*
D55*
X159500Y281500D02*
D03*
X172250D02*
D03*
X257875Y282000D02*
D03*
X270625D02*
D03*
X306625D02*
D03*
X319375D02*
D03*
X110750Y281500D02*
D03*
X123500D02*
D03*
D56*
X150125Y255875D02*
D03*
Y268625D02*
D03*
X230750Y199625D02*
D03*
Y212375D02*
D03*
X280250Y220863D02*
D03*
Y233613D02*
D03*
Y256375D02*
D03*
Y269125D02*
D03*
X297000Y256375D02*
D03*
Y269125D02*
D03*
X133125Y220375D02*
D03*
Y233125D02*
D03*
Y255875D02*
D03*
Y268625D02*
D03*
X194250Y199750D02*
D03*
Y212500D02*
D03*
D57*
X110375Y111250D02*
D03*
X123125D02*
D03*
D58*
X183875Y323125D02*
D03*
Y310375D02*
D03*
X331000Y323875D02*
D03*
Y311125D02*
D03*
D59*
X83750Y246500D02*
D03*
X73750D02*
D03*
X221500Y336750D02*
D03*
X211500D02*
D03*
X231250Y247250D02*
D03*
X221250D02*
D03*
D60*
X121750Y497400D02*
D03*
X121750Y480100D02*
D03*
X72000Y473350D02*
D03*
Y490650D02*
D03*
D61*
X140401Y504250D02*
D03*
Y544250D02*
D03*
Y524250D02*
D03*
X186101Y504250D02*
D03*
Y524250D02*
D03*
Y544250D02*
D03*
D62*
X353250Y479500D02*
D03*
Y470500D02*
D03*
X363250Y479500D02*
D03*
Y470500D02*
D03*
X316000Y549000D02*
D03*
Y540000D02*
D03*
X333750Y455250D02*
D03*
Y464250D02*
D03*
X208750Y525000D02*
D03*
Y534000D02*
D03*
X109500Y440750D02*
D03*
Y431750D02*
D03*
X341500Y532000D02*
D03*
Y541000D02*
D03*
X236500Y317000D02*
D03*
Y308000D02*
D03*
X89125Y316500D02*
D03*
Y307500D02*
D03*
X542500Y189000D02*
D03*
Y180000D02*
D03*
X542250Y419250D02*
D03*
Y410250D02*
D03*
X77000Y117250D02*
D03*
Y126250D02*
D03*
X98000Y103250D02*
D03*
Y112250D02*
D03*
X383250Y43000D02*
D03*
Y52000D02*
D03*
X304250Y54750D02*
D03*
Y63750D02*
D03*
X260450Y405000D02*
D03*
Y414000D02*
D03*
X357000Y526500D02*
D03*
Y517500D02*
D03*
X211250Y551500D02*
D03*
Y542500D02*
D03*
X37400Y112400D02*
D03*
Y121400D02*
D03*
D63*
X276400Y74000D02*
D03*
X286600D02*
D03*
X228350Y527000D02*
D03*
X218150D02*
D03*
X318850Y465500D02*
D03*
X308650D02*
D03*
X366900Y518750D02*
D03*
X377100D02*
D03*
X86850Y107500D02*
D03*
X76650D02*
D03*
X218350Y356250D02*
D03*
X208150D02*
D03*
X218350Y346500D02*
D03*
X208150D02*
D03*
X270650Y245000D02*
D03*
X280850D02*
D03*
X254650Y268750D02*
D03*
X264850D02*
D03*
X247400Y299750D02*
D03*
X257600D02*
D03*
X312400Y268750D02*
D03*
X322600D02*
D03*
X348600Y296750D02*
D03*
X338400D02*
D03*
X339400Y276250D02*
D03*
X349600D02*
D03*
X231350Y257250D02*
D03*
X221150D02*
D03*
X123525Y244500D02*
D03*
X133725D02*
D03*
X107525Y268250D02*
D03*
X117725D02*
D03*
X100150Y299500D02*
D03*
X110350D02*
D03*
X165275Y268250D02*
D03*
X175475D02*
D03*
X202350Y296750D02*
D03*
X192150D02*
D03*
X192400Y276250D02*
D03*
X202600D02*
D03*
X84600Y448250D02*
D03*
X74400D02*
D03*
X552100Y170500D02*
D03*
X541900D02*
D03*
X552100Y199000D02*
D03*
X541900D02*
D03*
X509100Y418250D02*
D03*
X498900D02*
D03*
X509100Y408000D02*
D03*
X498900D02*
D03*
X84100Y256750D02*
D03*
X73900D02*
D03*
X203850Y222500D02*
D03*
X193650D02*
D03*
X180850Y212500D02*
D03*
X170650D02*
D03*
X223350Y159250D02*
D03*
X213150D02*
D03*
X223350Y169250D02*
D03*
X213150D02*
D03*
X221150Y222500D02*
D03*
X231350D02*
D03*
X244150Y212500D02*
D03*
X254350D02*
D03*
X116400Y97500D02*
D03*
X126600D02*
D03*
X349599Y59250D02*
D03*
X339399D02*
D03*
X276399Y59000D02*
D03*
X286599D02*
D03*
X318599Y36250D02*
D03*
X308399D02*
D03*
X275150Y416250D02*
D03*
X285350D02*
D03*
X361900Y32250D02*
D03*
X372100D02*
D03*
X230600Y545250D02*
D03*
X220400D02*
D03*
X521350Y498000D02*
D03*
X511150D02*
D03*
D64*
X341818Y448182D02*
D03*
X348182Y441818D02*
D03*
X301932Y528318D02*
D03*
X295568Y534682D02*
D03*
D65*
X90250Y351500D02*
D03*
Y361500D02*
D03*
D66*
X149750Y242750D02*
D03*
X162500D02*
D03*
X297125Y243250D02*
D03*
X309875D02*
D03*
D67*
X89356Y507106D02*
D03*
X82144Y499893D02*
D03*
D68*
X493500Y430250D02*
D03*
X508000D02*
D03*
D69*
X437000Y520750D02*
D03*
X427000D02*
D03*
X360500Y73750D02*
D03*
X370500D02*
D03*
D72*
X620000Y0D02*
G03*
X650000Y30000I0J30000D01*
G01*
X650000Y530000D02*
G03*
X620000Y560000I-30000J0D01*
G01*
X572000Y0D02*
X620000D01*
X498000D02*
X572000D01*
X140250D02*
X498000D01*
X140250D02*
Y19250D01*
X71750D02*
X140250D01*
X71750Y0D02*
Y19250D01*
X30000Y0D02*
X71750D01*
X24148Y576D02*
X30000Y0D01*
X18520Y2284D02*
X24148Y576D01*
X13333Y5056D02*
X18520Y2284D01*
X8787Y8787D02*
X13333Y5056D01*
X5056Y13333D02*
X8787Y8787D01*
X2284Y18520D02*
X5056Y13333D01*
X577Y24147D02*
X2284Y18520D01*
X0Y30000D02*
X577Y24147D01*
X0Y30000D02*
Y168500D01*
X49750D01*
Y491250D01*
X0D02*
X49750D01*
X0D02*
Y530000D01*
X577Y535853D01*
X2284Y541480D01*
X5056Y546667D01*
X8787Y551213D01*
X13333Y554944D01*
X18520Y557716D01*
X24148Y559424D01*
X30000Y560000D01*
X62750Y560000D01*
X62750Y565000D02*
X62750Y560000D01*
X62750Y565000D02*
X587250Y565000D01*
X587250Y560000D01*
X620000Y560000D01*
X650000Y30000D02*
X650000Y530000D01*
M02*
