G04 Layer_Physical_Order=2*
G04 Layer_Color=32768*
%FSLAX44Y44*%
%MOMM*%
G71*
G01*
G75*
%ADD72C,0.1500*%
%ADD78C,1.0000*%
%ADD93C,1.0160*%
%ADD94C,2.2500*%
G04:AMPARAMS|DCode=95|XSize=3.3mm|YSize=3.3mm|CornerRadius=0mm|HoleSize=0mm|Usage=FLASHONLY|Rotation=0.000|XOffset=0mm|YOffset=0mm|HoleType=Round|Shape=Relief|Width=0.3mm|Gap=0.5mm|Entries=4|*
%AMTHD95*
7,0,0,3.3000,2.3000,0.3000,45*
%
%ADD95THD95*%
%ADD96C,1.6400*%
%ADD97C,0.9750*%
%ADD98C,3.2000*%
%ADD99C,1.9000*%
%ADD100C,1.5000*%
%ADD101C,0.7000*%
G36*
X519742Y326500D02*
X522108Y325521D01*
X524237Y324098D01*
X526048Y322287D01*
X527470Y320158D01*
X528450Y317792D01*
X528950Y315280D01*
Y314000D01*
Y312720D01*
X528450Y310208D01*
X527470Y307842D01*
X526048Y305713D01*
X524237Y303902D01*
X522108Y302479D01*
X519742Y301500D01*
X517230Y301000D01*
X514670D01*
X512158Y301500D01*
X509792Y302479D01*
X507663Y303902D01*
X505852Y305713D01*
X504430Y307842D01*
X503450Y310208D01*
X502950Y312720D01*
Y314000D01*
Y315280D01*
X503450Y317792D01*
X504430Y320158D01*
X505852Y322287D01*
X507663Y324098D01*
X509792Y325521D01*
X512158Y326500D01*
X514670Y327000D01*
X517230D01*
X519742Y326500D01*
D02*
G37*
D72*
X620000Y0D02*
G03*
X650000Y30000I0J30000D01*
G01*
X650000Y530000D02*
G03*
X620000Y560000I-30000J0D01*
G01*
X572000Y0D02*
X620000D01*
X498000D02*
X572000D01*
X140250D02*
X498000D01*
X140250D02*
Y19250D01*
X71750D02*
X140250D01*
X71750Y0D02*
Y19250D01*
X30000Y0D02*
X71750D01*
X24148Y576D02*
X30000Y0D01*
X18520Y2284D02*
X24148Y576D01*
X13333Y5056D02*
X18520Y2284D01*
X8787Y8787D02*
X13333Y5056D01*
X5056Y13333D02*
X8787Y8787D01*
X2284Y18520D02*
X5056Y13333D01*
X577Y24147D02*
X2284Y18520D01*
X0Y30000D02*
X577Y24147D01*
X0Y30000D02*
Y168500D01*
X49750D01*
Y491250D01*
X0D02*
X49750D01*
X0D02*
Y530000D01*
X577Y535853D01*
X2284Y541480D01*
X5056Y546667D01*
X8787Y551213D01*
X13333Y554944D01*
X18520Y557716D01*
X24148Y559424D01*
X30000Y560000D01*
X62750Y560000D01*
X62750Y565000D02*
X62750Y560000D01*
X62750Y565000D02*
X587250Y565000D01*
X587250Y560000D01*
X620000Y560000D01*
X650000Y30000D02*
X650000Y530000D01*
D78*
X122000Y19250D02*
X128250D01*
X130500Y21500D02*
X142500D01*
X83750Y19250D02*
X90000D01*
X69500Y21500D02*
X81500D01*
X140250Y0D02*
X142500D01*
X69500D02*
X71750D01*
X69500D02*
Y21500D01*
X90000Y19250D02*
X122000D01*
X142500Y0D02*
Y21500D01*
D93*
X620000Y0D02*
G03*
X650000Y30000I0J30000D01*
G01*
X650000Y530000D02*
G03*
X620000Y560000I-30000J0D01*
G01*
X572000Y0D02*
X620000D01*
X498000D02*
X572000D01*
X140250D02*
X498000D01*
X140250D02*
Y19250D01*
X71750D02*
X140250D01*
X71750Y0D02*
Y19250D01*
X30000Y0D02*
X71750D01*
X24148Y576D02*
X30000Y0D01*
X18520Y2284D02*
X24148Y576D01*
X13333Y5056D02*
X18520Y2284D01*
X8787Y8787D02*
X13333Y5056D01*
X5056Y13333D02*
X8787Y8787D01*
X2284Y18520D02*
X5056Y13333D01*
X577Y24147D02*
X2284Y18520D01*
X0Y30000D02*
X577Y24147D01*
X0Y30000D02*
Y168500D01*
X49750D01*
Y491250D01*
X0D02*
X49750D01*
X0D02*
Y530000D01*
X577Y535853D01*
X2284Y541480D01*
X5056Y546667D01*
X8787Y551213D01*
X13333Y554944D01*
X18520Y557716D01*
X24148Y559424D01*
X30000Y560000D01*
X62750Y560000D01*
X62750Y565000D02*
X62750Y560000D01*
X62750Y565000D02*
X587250Y565000D01*
X587250Y560000D01*
X620000Y560000D01*
X650000Y30000D02*
X650000Y530000D01*
D94*
X553600Y525000D02*
D03*
X96400D02*
D03*
D95*
X559600Y37750D02*
D03*
X483400D02*
D03*
D96*
X521500Y113950D02*
D03*
D97*
X148500Y406000D02*
D03*
Y466000D02*
D03*
Y446000D02*
D03*
Y426000D02*
D03*
X396751Y520250D02*
D03*
D98*
X35000Y35000D02*
D03*
Y525000D02*
D03*
X615000D02*
D03*
Y35000D02*
D03*
D99*
X76750Y14250D02*
D03*
X135250Y14250D02*
D03*
D100*
X17500Y141500D02*
D03*
D101*
X91250Y246500D02*
D03*
X239000Y247250D02*
D03*
X44900Y112550D02*
D03*
X45000Y121950D02*
D03*
X136800Y403500D02*
D03*
X207600Y405400D02*
D03*
X237250Y408500D02*
D03*
X253200Y413900D02*
D03*
X251999Y18750D02*
D03*
X252999Y32750D02*
D03*
X502750Y501500D02*
D03*
X406750Y526250D02*
D03*
X400500Y511000D02*
D03*
X349250Y536750D02*
D03*
X201250Y537000D02*
D03*
X177250Y448000D02*
D03*
X117500Y427000D02*
D03*
X200500Y545500D02*
D03*
X134250Y513000D02*
D03*
X167000Y537500D02*
D03*
X211250Y513750D02*
D03*
X239750Y525750D02*
D03*
X189250Y468250D02*
D03*
X197250Y473750D02*
D03*
X363000Y533250D02*
D03*
X302750Y556750D02*
D03*
X376500Y526250D02*
D03*
X227250Y462250D02*
D03*
X248500Y467500D02*
D03*
X234250Y455250D02*
D03*
X236250Y446750D02*
D03*
X280250Y401500D02*
D03*
X296500Y550500D02*
D03*
X387000Y59250D02*
D03*
X369000Y47750D02*
D03*
X383250Y35000D02*
D03*
X361000Y54500D02*
D03*
X361500Y40750D02*
D03*
X457000Y41000D02*
D03*
X431750Y41500D02*
D03*
X406750Y41250D02*
D03*
X379250Y26000D02*
D03*
X442250Y28750D02*
D03*
X409750Y29000D02*
D03*
X324749Y56250D02*
D03*
X340749Y66500D02*
D03*
X203000Y363500D02*
D03*
X198750Y355000D02*
D03*
Y338250D02*
D03*
X309765Y47002D02*
D03*
X295499Y63750D02*
D03*
X261749Y10764D02*
D03*
X245749Y27750D02*
D03*
X309249Y23500D02*
D03*
X285999Y66500D02*
D03*
X192249Y54250D02*
D03*
X203749Y69750D02*
D03*
X305500Y369250D02*
D03*
X205500Y332500D02*
D03*
X201000Y346750D02*
D03*
X311733Y361017D02*
D03*
X516750Y210250D02*
D03*
X106250Y329250D02*
D03*
X254000Y329750D02*
D03*
X349250Y267750D02*
D03*
X203250Y268500D02*
D03*
X83750Y239000D02*
D03*
X231750Y239750D02*
D03*
X166500Y41000D02*
D03*
X158000Y40750D02*
D03*
X87750Y369250D02*
D03*
X118250Y362250D02*
D03*
X126750D02*
D03*
X81250Y418500D02*
D03*
Y410000D02*
D03*
X60250Y405750D02*
D03*
X60250Y425500D02*
D03*
X60750Y443500D02*
D03*
X60250Y415000D02*
D03*
X492750Y440250D02*
D03*
X484000Y438000D02*
D03*
X483000Y428000D02*
D03*
X490250Y420750D02*
D03*
X491000Y409250D02*
D03*
X261500Y482500D02*
D03*
X236000Y482250D02*
D03*
X189500Y438250D02*
D03*
X161750Y361000D02*
D03*
X157250Y368250D02*
D03*
X180229Y482024D02*
D03*
X189500Y482000D02*
D03*
X148875Y358250D02*
D03*
X296000Y358250D02*
D03*
X165250Y478750D02*
D03*
X284750Y408750D02*
D03*
X218750Y534000D02*
D03*
X401750Y546000D02*
D03*
X317000Y482500D02*
D03*
X327000Y492250D02*
D03*
X335250Y443000D02*
D03*
X334750Y417000D02*
D03*
X244000Y441500D02*
D03*
X337000Y518500D02*
D03*
X348500Y511250D02*
D03*
X311250Y524750D02*
D03*
X273500Y463500D02*
D03*
X529750Y520750D02*
D03*
X529250Y542500D02*
D03*
X556000Y508750D02*
D03*
X578500Y541750D02*
D03*
X552250Y542500D02*
D03*
X502750Y519750D02*
D03*
X70250Y556500D02*
D03*
X309500Y401500D02*
D03*
X338000Y405751D02*
D03*
X356000Y403000D02*
D03*
X316500Y443000D02*
D03*
X313770Y409250D02*
D03*
X112250Y537250D02*
D03*
X110000Y520250D02*
D03*
Y528750D02*
D03*
X103750Y537250D02*
D03*
X71000Y508750D02*
D03*
X71250Y500250D02*
D03*
X95000Y488500D02*
D03*
X69500Y536250D02*
D03*
X71000Y517250D02*
D03*
X77750Y522750D02*
D03*
X197500Y430500D02*
D03*
X323730Y536500D02*
D03*
X347750Y549000D02*
D03*
X174000Y45000D02*
D03*
X104000Y460000D02*
D03*
X294000Y74000D02*
D03*
X325500Y476325D02*
D03*
X283750Y482674D02*
D03*
X400500Y502500D02*
D03*
X293264Y421021D02*
D03*
X363250Y463000D02*
D03*
X386500Y81750D02*
D03*
X378000D02*
D03*
X466500Y71750D02*
D03*
M02*
