M48
;Layer_Color=9474304
;FILE_FORMAT=4:4
METRIC
;TYPE=PLATED
T1F00S00C0.2500
T2F00S00C0.4000
T3F00S00C0.5250
T4F00S00C1.0500
T5F00S00C1.1900
T6F00S00C1.7000
;TYPE=NON_PLATED
T7F00S00C1.4500
T8F00S00C1.8000
T9F00S00C2.7500
%
T01
X00077750Y00068500
X00085500Y00073000
X00090500Y00064750
X00090750Y00056250
X00121500Y00055500
X00120750Y00064750
X00109750Y00073750
X00109750Y00097500
X00084000Y00097000
X00071000Y00098500
X00067750Y00119000
X00054500Y00119500
X00045000Y00121950
X00044900Y00112550
X00044700Y00138650
X00054500Y00131500
X00068000Y00133000
X00071250Y00145250
X00083750Y00153500
X00093750Y00155750
X00099500Y00133250
X00100500Y00124750
X00091500Y00123500
X00086250Y00116750
X00118500Y00122000
X00121250Y00140750
X00107250Y00174250
X00115249Y00188500
X00107750Y00199750
X00101750Y00222500
X00123000Y00214250
X00073250Y00218000
X00062500Y00215250
X00079250Y00200250
X00088250Y00188500
X00072750Y00175500
X00061100Y00175250
X00132500Y00166750
X00142250Y00150500
X00130250Y00140500
X00136500Y00118250
X00154500Y00118500
X00148250Y00107750
X00155250Y00098500
X00142500Y00084000
X00146750Y00068750
X00134000Y00068250
X00173750Y00069500
X00181500Y00061500
X00192249Y00054250
X00181500Y00041000
X00174000Y00045000
X00166500Y00041000
X00158000Y00040750
X00151580Y00035001
X00164500Y00032500
X00181500Y00024750
X00193749Y00021250
X00191499Y00030500
X00181500Y00008250
X00166500Y00008250
X00150750
X00233499Y00013750
X00251999Y00018750
X00252999Y00032750
Y00041500
X00245749Y00027750
X00261749Y00010764
X00294999Y00014250
X00308999Y00014000
X00309249Y00023500
X00301999Y00030500
X00301399Y00041000
X00309765Y00047002
X00318250Y00044000
X00324749Y00056250
X00340749Y00066500
X00349499Y00066500
X00352750Y00074500
X00361000Y00054500
X00361500Y00040750
X00369000Y00047750
X00378250Y00063000
X00387000Y00059250
X00386500Y00081750
X00378000
X00401000Y00081000
X00413250Y00072250
X00424750Y00060750
X00418750Y00041000
X00406750Y00041250
X00393500Y00041000
X00383250Y00035000
X00379250Y00026000
X00409750Y00029000
X00442250Y00028750
X00443500Y00039250
X00431750Y00041500
X00457000Y00041000
X00465500Y00057250
X00466500Y00071750
Y00081750
X00450500Y00082250
X00496500Y00078000
X00495000Y00100000
X00499750Y00108750
X00501250Y00121500
X00510500Y00132500
X00511500Y00147000
X00500000Y00145000
X00518500Y00160000
X00515000Y00185000
X00516750Y00210250
X00504250Y00214750
X00480000Y00202750
X00453000Y00214000
X00416000Y00214250
X00395000Y00210000
Y00185000
Y00160000
Y00132250
X00388000Y00109250
X00409750Y00102500
X00365000Y00118000
X00354000Y00116750
X00364750Y00132250
X00353750Y00144750
X00354000Y00172500
X00365000Y00173750
X00351000Y00200750
X00333250Y00200250
X00336250Y00188500
X00310250Y00188250
X00296750Y00186750
X00299000Y00199500
X00293250Y00211500
X00306750Y00214000
X00307000Y00226000
X00336250Y00231250
X00352000Y00219750
X00362500Y00215000
X00282250Y00205750
X00267000Y00203250
X00253500Y00203000
X00241750Y00202750
X00237250Y00188000
X00223000Y00188000
X00222750Y00178250
X00232500Y00169250
Y00159250
X00223000Y00150000
Y00140250
X00213500Y00131250
X00201500Y00109000
X00176000Y00108250
X00177000Y00126750
X00176750Y00154000
X00177000Y00172500
X00153750Y00172250
X00154750Y00162500
X00146750Y00188250
X00138500Y00199500
X00135750Y00210750
X00145750Y00208250
X00159000Y00203000
X00173000
X00184000Y00202750
X00187500Y00188500
X00198000Y00181750
X00204500Y00187500
Y00174750
Y00162250
X00257250Y00175500
X00277750Y00188250
X00270000Y00223000
X00256500Y00222750
X00240250Y00222500
X00221500Y00231500
X00205000Y00231250
X00194250Y00231750
X00184500Y00222500
X00174250Y00222250
X00159750Y00222500
X00123250Y00225750
X00212250Y00223250
X00263500Y00139750
X00262750Y00099500
X00269250Y00086000
X00269000Y00074000
X00276999Y00066250
X00285999Y00066500
X00295499Y00063750
X00294000Y00074000
X00281500Y00086250
X00297250Y00099500
X00315750Y00099500
X00321750Y00086250
X00336250Y00099750
X00319500Y00138250
X00315500Y00172500
X00439000Y00160000
X00453500Y00130000
X00506750Y00094000
X00506750Y00062000
X00483250Y00062250
X00508000Y00037750
X00339499Y00010250
X00265763Y00055753
X00229750Y00086000
X00226500Y00099250
X00212250Y00086500
X00195000Y00086250
X00203749Y00069750
X00521500Y00063750
X00536250Y00062000
X00559500Y00062750
X00574000Y00058250
X00588000Y00078750
X00575000Y00100000
X00541750Y00104500
X00542500Y00116750
X00537250Y00125250
X00537750Y00134000
X00532500Y00144500
X00541500Y00154750
X00551500Y00161500
X00559250Y00170500
X00551750Y00179000
Y00191000
X00559500Y00199000
X00551750Y00211000
X00570000Y00210000
X00585000Y00230000
X00555000
X00533000Y00211750
X00532500Y00197000
X00533000Y00182750
X00527250Y00170000
X00575000Y00140000
X00615000Y00135000
X00639000
Y00165000
Y00195000
X00631500Y00218750
X00600000Y00180000
X00615000Y00090000
X00639000Y00081000
X00639000Y00105000
X00536250Y00094250
X00546750Y00078000
X00534750Y00037750
X00521750Y00032000
X00602249Y00240000
X00603000Y00265250
X00602000Y00298750
X00620751Y00284500
X00639000Y00270000
Y00240000
Y00300000
Y00325000
Y00355000
X00620500Y00348000
X00602250Y00337000
X00602000Y00393750
X00639000Y00385000
Y00420000
X00638500Y00450000
X00615000Y00445000
X00580000Y00440000
X00550250Y00448750
X00550000Y00475000
X00555250Y00490500
Y00499750
X00556000Y00508750
X00543526Y00513275
X00529750Y00520750
X00529250Y00499500
X00525000Y00475000
X00575000
X00577000Y00490500
X00576750Y00499750
X00582750Y00521500
X00569000
X00578500Y00541750
X00552250Y00542500
X00529250Y00542500
X00600000Y00475000
X00625000
X00556250Y00403500
X00527750Y00385500
X00506250Y00385750
X00507250Y00400250
X00517000Y00408000
Y00418250
X00516750Y00430250
X00508500Y00440250
X00492750
X00484000Y00438000
X00483000Y00428000
X00490250Y00420750
X00491000Y00409250
X00478250Y00399750
X00451750Y00405750
X00450000Y00435000
Y00475000
X00475000
X00500000
X00502750Y00501500
X00502750Y00519750
X00516250Y00521250
X00503250Y00540750
X00480250Y00535750
X00478500Y00551750
X00480500Y00517750
X00476750Y00499500
X00449500Y00541000
X00423000Y00539250
X00401750Y00546000
X00406750Y00526250
X00400500Y00511000
Y00502500
X00388500Y00512500
X00376500Y00526250
X00367500Y00526000
X00363000Y00533250
X00349250Y00536750
X00347750Y00549000
X00332250Y00537500
X00323730Y00536500
X00324250Y00545000
X00322250Y00556750
X00302750Y00556750
X00296500Y00550500
X00311250Y00524750
X00337000Y00518500
X00348500Y00511250
X00327000Y00492250
X00325500Y00476325
X00317000Y00474000
Y00482500
X00325750Y00465500
X00341250Y00460250
X00354017Y00463273
X00363250Y00463000
X00380000Y00475000
X00405000
X00425000
X00405000Y00435000
X00394500Y00405750
X00378750Y00391750
X00356000Y00403000
X00338000Y00405751
X00334750Y00417000
X00335250Y00426750
X00335250Y00443000
X00316500Y00443000
X00316500Y00433750
X00300500Y00434000
X00293264Y00421021
X00284750Y00408750
X00275750
X00280250Y00401500
X00280750Y00391000
X00252850Y00401850
X00253200Y00413900
X00237250Y00408500
X00238750Y00400000
X00231750Y00392250
X00232750Y00362000
X00224750Y00356250
X00224500Y00346500
X00201000Y00346750
X00198750Y00355000
X00203000Y00363500
X00198750Y00338250
X00205500Y00332500
X00202000Y00304000
X00209000Y00297000
X00203250Y00268500
X00194750Y00267250
X00183750Y00267000
X00182750Y00277250
X00174750Y00260250
X00160000
X00162250Y00251750
X00170750Y00242750
X00162250Y00233750
X00123250Y00236250
X00123250Y00260000
X00132875Y00313500
Y00324500
Y00335500
X00143875
Y00324500
Y00313500
X00154875
Y00324500
Y00335500
X00148875Y00358250
X00161750Y00361000
X00157250Y00368250
X00126750Y00362250
X00129250Y00408000
X00136800Y00403500
X00176250Y00400750
X00197750Y00414050
X00197500Y00430500
X00189500Y00438250
X00189500Y00447000
X00177250Y00448000
X00189250Y00468250
X00197250Y00473750
X00189500Y00482000
X00180229Y00482024
X00176250Y00491000
X00177250Y00513000
X00186509Y00512775
X00211250Y00513750
X00218750Y00534000
X00227750Y00534250
X00239750Y00525750
X00247000Y00540250
X00201250Y00537000
X00200500Y00545500
X00167000Y00537500
X00134250Y00534500
X00125750Y00534250
X00124000Y00542750
X00134250Y00513000
X00165250Y00478750
X00124000Y00448000
X00236250Y00446750
X00234250Y00455250
X00227250Y00462250
X00248500Y00467500
X00236000Y00482250
X00261500Y00482500
X00283750Y00482674
X00273500Y00463500
X00244000Y00441500
X00207600Y00405400
X00245000Y00353500
X00255000
X00263250Y00355750
X00264000Y00347250
X00280000Y00336000
Y00325000
Y00314000
X00291000
Y00325000
Y00336000
X00302000
Y00325000
Y00314000
X00307250Y00292250
X00319000
X00329250Y00278000
X00331000Y00268750
X00322000Y00260500
X00306500Y00261250
X00309750Y00252000
X00318250Y00243250
X00311500Y00234250
X00270250Y00236750
X00263250Y00245000
X00251000Y00239000
X00231750Y00239750
X00239000Y00247250
X00238250Y00257500
X00255250Y00260250
X00270250
X00246750Y00269000
X00248750Y00282250
X00247750Y00291750
X00257750Y00292000
X00269250Y00292250
X00254000Y00329750
X00245500Y00328500
X00234000Y00326750
X00296000Y00358250
X00311733Y00361017
X00305500Y00369250
X00309500Y00401500
X00313770Y00409250
X00335500Y00388500
X00362500Y00359500
X00364750Y00334750
X00365000Y00319500
X00348250Y00304000
X00355250Y00297000
X00365250Y00283500
Y00268000
X00349250Y00267750
X00351750Y00259000
X00352000Y00244750
X00365000Y00241750
X00395000Y00235000
X00415250Y00235500
X00415750Y00270000
X00395000Y00260000
Y00285000
Y00310000
Y00335000
X00415750Y00320000
Y00350000
X00414749Y00383000
X00394750Y00373000
X00380000Y00450000
X00376750Y00498250
X00171750Y00291750
X00161750
X00192000Y00246250
X00204500Y00257500
X00108000Y00260250
X00100250Y00268250
X00102750Y00279750
X00100500Y00290750
X00110750Y00291250
X00122000Y00292000
X00106250Y00329250
X00097750Y00329000
X00086750Y00326000
X00098000Y00354000
X00108250Y00354250
X00121750Y00354125
X00118250Y00362250
X00121000Y00372500
X00114000Y00378250
X00105500
X00096250
X00089250Y00388500
X00087750Y00369250
X00080000Y00364750
X00070750Y00364750
X00062500Y00362500
X00075500Y00372000
X00081250Y00410000
Y00418500
X00090000Y00411500
X00100000Y00427500
X00100000Y00438500
X00100000Y00447250
X00091250Y00445750
X00104000Y00460000
X00094750Y00480000
X00095000Y00488500
X00098250Y00496500
X00097750Y00508500
X00084029Y00513029
X00077750Y00522750
X00071000Y00517250
X00071000Y00508750
X00071250Y00500250
X00062250Y00508000
X00052250Y00499250
X00069500Y00536250
X00070250Y00556500
X00062250Y00551750
X00103750Y00537250
X00112250Y00537250
X00110000Y00528750
Y00520250
X00117500Y00427000
X00115000Y00390750
X00116750Y00347250
X00061100Y00307750
Y00295000
Y00255250
Y00240000
X00073500Y00236750
X00083750Y00239000
X00092750Y00237500
X00091250Y00246500
X00091000Y00257000
X00116000Y00244750
X00060250Y00405750
X00060250Y00415000
Y00425500
X00060750Y00443500
T02
X00451750Y00499500
T03
X00148500Y00406000
Y00426000
Y00446000
Y00466000
X00148500Y00486000
X00396751Y00520250
X00416751
T04
X00017500Y00096500
X00042500Y00084000
Y00154000
X00017500Y00141500
T05
X00521500Y00113950
T06
X00483400Y00037750
X00559600
T07
X00076750Y00014250
X00135250Y00014250
T08
X00553600Y00525000
X00096400
T09
X00035000Y00035000
X00615000
Y00525000
X00035000
M30
